<svg width="390" height="195" viewBox="0 0 390 195" fill="none" xmlns="http://www.w3.org/2000/svg">
<path d="M8.1 166.93C5.60667 167.043 3.68 166.59 2.32 165.57C0.846666 164.55 0.336666 162.623 0.789999 159.79C0.789999 159.45 0.903332 158.94 1.13 158.26C1.35667 157.58 1.64 157.127 1.98 156.9C1.86667 159.733 2.20667 161.717 3 162.85C3.79333 163.983 5.09667 164.55 6.91 164.55C11.33 164.55 15.8633 163.133 20.51 160.3C25.27 157.467 29.9733 153.67 34.62 148.91C33.4867 148.57 32.0133 147.89 30.2 146.87C28.5 145.963 27.1967 145.227 26.29 144.66C21.7567 141.373 19.49 137.577 19.49 133.27C19.49 129.983 20.9633 126.413 23.91 122.56C26.8567 118.707 31.6733 114.797 38.36 110.83C42.6667 108.223 47.6533 105.9 53.32 103.86C58.9867 101.82 64.2567 100.177 69.13 98.93C70.83 95.6433 72.4733 92.4133 74.06 89.24C75.6467 86.0667 77.1767 82.8933 78.65 79.72C79.2167 78.4733 80.2367 76.0933 81.71 72.58C83.1833 69.0667 84.8267 64.93 86.64 60.17C88.4533 55.41 90.1533 50.3667 91.74 45.04C93.44 39.6 94.8567 34.33 95.99 29.23C97.1233 24.13 97.69 19.5967 97.69 15.63C97.69 11.7767 97.01 8.77332 95.65 6.61999C94.4033 4.46666 92.1367 3.38999 88.85 3.38999H88.68C87.7733 3.38999 87.32 3.10666 87.32 2.53999C87.32 1.97333 87.8867 1.57666 89.02 1.34999C94.46 0.783323 98.2567 2.08666 100.41 5.25999C102.563 8.43333 103.64 12.6267 103.64 17.84C103.64 18.7467 103.583 19.71 103.47 20.73C103.47 21.75 103.413 22.8267 103.3 23.96C103.98 24.5267 104.433 25.49 104.66 26.85C105.34 30.4767 106.02 35.2367 106.7 41.13C107.493 47.0233 108.4 53.4833 109.42 60.51C110.44 67.5367 111.63 74.6767 112.99 81.93C114.463 89.07 116.163 95.8133 118.09 102.16C120.13 108.393 122.51 113.663 125.23 117.97C125.797 118.877 126.59 120.067 127.61 121.54C128.63 122.9 129.877 124.147 131.35 125.28C132.823 126.413 134.467 126.98 136.28 126.98C138.207 126.98 140.19 126.187 142.23 124.6C144.043 123.127 145.743 121.087 147.33 118.48C148.917 115.873 150.39 113.097 151.75 110.15C152.43 108.903 153.053 108.28 153.62 108.28C154.187 108.28 154.583 108.62 154.81 109.3C155.15 109.867 155.263 110.433 155.15 111C154.697 112.473 153.733 114.23 152.26 116.27C150.9 118.197 149.483 120.01 148.01 121.71C146.537 123.297 145.347 124.43 144.44 125.11C142.4 126.697 140.417 127.83 138.49 128.51C136.677 129.303 134.977 129.7 133.39 129.7C129.65 129.7 126.363 128.283 123.53 125.45C120.81 122.503 118.43 119.443 116.39 116.27C113.557 111.737 111.29 106.013 109.59 99.1C108.003 92.1867 106.757 84.7067 105.85 76.66C104.943 68.6133 104.207 60.68 103.64 52.86C103.187 45.04 102.677 37.9 102.11 31.44C100.75 37.7867 98.88 44.3033 96.5 50.99C94.12 57.6767 91.6833 63.8533 89.19 69.52C86.81 75.0733 84.8267 79.38 83.24 82.44C80.7467 87.54 78.0267 92.64 75.08 97.74C80.2933 96.4933 85.7333 95.36 91.4 94.34C97.0667 93.32 102.053 92.3567 106.36 91.45H106.87C107.323 91.45 107.55 91.62 107.55 91.96C107.55 92.3 107.267 92.7533 106.7 93.32C106.133 93.8867 105.397 94.2833 104.49 94.51C99.6167 95.4167 94.3467 96.4933 88.68 97.74C83.0133 98.8733 77.6867 100.12 72.7 101.48C67.4867 110.433 62.2167 118.933 56.89 126.98C51.5633 135.027 45.7267 142.167 39.38 148.4C43.6867 149.76 49.1833 150.44 55.87 150.44H56.21C57.1167 150.44 57.57 150.667 57.57 151.12C57.57 151.8 56.89 152.14 55.53 152.14C52.3567 152.253 49.24 152.083 46.18 151.63C43.12 151.29 40.2867 150.723 37.68 149.93C32.6933 154.803 27.65 158.713 22.55 161.66C17.5633 164.72 12.7467 166.477 8.1 166.93ZM36.32 147.21C41.76 141.543 47.03 134.913 52.13 127.32C57.3433 119.727 62.2167 111.793 66.75 103.52C65.2767 103.973 63.7467 104.483 62.16 105.05C60.5733 105.617 59.0433 106.297 57.57 107.09C55.6433 107.997 53.0367 109.3 49.75 111C46.4633 112.7 43.1767 114.513 39.89 116.44C36.7167 118.253 34.28 119.897 32.58 121.37C30.3133 123.41 28.67 125.393 27.65 127.32C26.63 129.247 26.12 131.117 26.12 132.93C26.12 134.517 26.4033 136.047 26.97 137.52C27.65 138.993 28.4433 140.41 29.35 141.77C29.9167 142.45 30.9367 143.357 32.41 144.49C33.9967 145.737 35.3 146.643 36.32 147.21ZM144.764 152.65C143.631 152.65 142.724 152.31 142.044 151.63C141.251 150.95 141.137 150.157 141.704 149.25C143.291 146.87 144.821 143.47 146.294 139.05C147.654 134.743 148.844 130.21 149.864 125.45C150.997 120.69 151.904 116.383 152.584 112.53C153.377 108.563 153.944 105.787 154.284 104.2C152.244 102.273 151.224 100.12 151.224 97.74C151.224 95.9267 151.621 94.3967 152.414 93.15C153.321 91.9033 154.001 91.3367 154.454 91.45C154.681 91.45 154.964 91.5633 155.304 91.79C155.757 91.9033 155.984 92.0733 155.984 92.3C156.664 86.9733 157.231 81.7033 157.684 76.49C158.137 71.1633 158.364 66.29 158.364 61.87C158.364 58.2433 158.194 55.0133 157.854 52.18C157.514 49.3467 157.004 47.08 156.324 45.38C155.644 43.68 155.304 42.3767 155.304 41.47C155.304 40.2233 155.644 39.6 156.324 39.6C157.117 39.6 157.741 40.11 158.194 41.13C159.441 43.6233 160.347 47.5333 160.914 52.86C161.594 58.1867 161.934 64.25 161.934 71.05C161.934 75.6967 161.821 80.6267 161.594 85.84C161.367 90.94 160.971 96.04 160.404 101.14C162.444 99.3267 164.541 97.57 166.694 95.87C168.847 94.0567 170.717 92.1867 172.304 90.26V90.09C172.304 89.8633 172.191 89.6367 171.964 89.41C171.851 89.1833 171.794 88.8433 171.794 88.39C171.794 87.5967 172.361 86.6333 173.494 85.5C174.627 84.3667 176.101 82.78 177.914 80.74C179.841 78.5867 181.824 76.66 183.864 74.96C185.904 73.1467 187.774 72.2967 189.474 72.41C190.834 72.41 191.514 72.8633 191.514 73.77C191.514 74.79 190.551 76.32 188.624 78.36C186.697 80.4 184.374 82.5533 181.654 84.82C179.047 87.0867 176.611 89.1833 174.344 91.11C172.191 92.9233 170.774 94.17 170.094 94.85L163.634 101.99L160.234 105.56C161.707 109.3 163.407 112.983 165.334 116.61C167.261 120.237 169.414 123.24 171.794 125.62C174.287 128 176.837 129.19 179.444 129.19C182.164 129.19 184.941 127.547 187.774 124.26C189.701 121.88 191.344 119.217 192.704 116.27C194.064 113.323 195.197 111.113 196.104 109.64C196.671 108.507 197.237 107.77 197.804 107.43C198.371 106.977 198.824 106.75 199.164 106.75C199.957 106.75 200.241 107.317 200.014 108.45C199.561 109.923 198.767 111.793 197.634 114.06C196.501 116.327 195.367 118.48 194.234 120.52C193.214 122.447 192.421 123.807 191.854 124.6C189.701 127.773 187.547 130.097 185.394 131.57C183.241 133.043 181.144 133.78 179.104 133.78C176.497 133.78 173.947 132.817 171.454 130.89C168.961 128.963 166.637 126.47 164.484 123.41C162.444 120.35 160.574 117.12 158.874 113.72C157.627 122.333 156.097 130.04 154.284 136.84C152.471 143.753 150.487 148.513 148.334 151.12C147.314 152.14 146.124 152.65 144.764 152.65ZM200.318 133.78C198.165 133.78 196.692 133.157 195.898 131.91C195.445 131.23 195.218 130.493 195.218 129.7C195.218 128.793 195.615 127.717 196.408 126.47C197.202 125.223 198.618 124.09 200.658 123.07C200.885 122.957 201.735 122.447 203.208 121.54C204.795 120.633 205.758 120.123 206.098 120.01C205.418 117.517 204.228 115.023 202.528 112.53C200.828 109.923 199.298 106.977 197.938 103.69C196.578 100.403 196.012 96.3233 196.238 91.45C196.465 86.8033 197.712 82.78 199.978 79.38C202.245 75.98 205.135 73.2033 208.648 71.05C212.275 68.8967 216.015 67.4233 219.868 66.63C220.775 66.4033 221.738 66.2333 222.758 66.12C223.778 66.0067 224.798 65.95 225.818 65.95C228.652 65.95 231.145 66.29 233.298 66.97C235.565 67.65 237.492 68.7833 239.078 70.37C240.778 71.9567 241.628 73.7133 241.628 75.64C241.628 76.8867 241.232 78.1333 240.438 79.38C240.212 79.8333 239.872 80.2867 239.418 80.74C238.965 81.1933 238.398 81.42 237.718 81.42C237.265 81.42 237.038 81.08 237.038 80.4C237.038 79.8333 237.152 79.0967 237.378 78.19C237.718 77.2833 237.945 76.7167 238.058 76.49C238.172 76.2633 238.228 75.8667 238.228 75.3C238.228 74.0533 237.888 73.0333 237.208 72.24C236.415 71.22 235.168 70.5967 233.468 70.37C231.882 70.1433 230.408 70.03 229.048 70.03C225.082 70.03 221.172 71.1067 217.318 73.26C213.465 75.4133 210.065 78.19 207.118 81.59C204.285 84.8767 202.302 88.39 201.168 92.13C200.828 93.15 200.602 94.17 200.488 95.19C200.375 96.0967 200.318 97.0033 200.318 97.91C200.318 101.877 201.225 105.673 203.038 109.3C204.852 112.927 206.438 116.27 207.798 119.33C210.972 117.63 213.805 116.44 216.298 115.76C216.638 115.647 216.922 115.59 217.148 115.59C217.488 115.59 217.715 115.59 217.828 115.59C218.395 115.59 218.678 115.76 218.678 116.1C218.678 116.667 217.942 117.233 216.468 117.8C216.128 117.913 215.278 118.253 213.918 118.82C212.558 119.387 210.915 120.18 208.988 121.2C209.555 122.673 209.838 124.09 209.838 125.45C209.838 126.81 209.498 128.113 208.818 129.36C208.138 130.607 206.948 131.627 205.248 132.42C203.548 133.327 201.905 133.78 200.318 133.78ZM200.828 129.19C200.942 129.983 201.452 130.153 202.358 129.7C203.378 129.247 204.398 128.453 205.418 127.32C206.438 126.187 206.948 125.053 206.948 123.92C206.948 123.693 206.948 123.467 206.948 123.24C207.062 122.9 207.062 122.56 206.948 122.22C205.248 123.24 203.775 124.373 202.528 125.62C201.282 126.753 200.715 127.943 200.828 129.19ZM257.126 157.75C254.519 157.75 252.536 156.673 251.176 154.52C249.929 152.367 249.306 149.873 249.306 147.04C249.306 143.64 249.929 139.73 251.176 135.31C252.536 131.003 254.179 126.583 256.106 122.05C258.033 117.403 260.016 112.927 262.056 108.62C264.209 104.313 266.079 100.46 267.666 97.06C269.366 93.66 270.499 91.0533 271.066 89.24C271.746 87.2 272.086 85.67 272.086 84.65C272.086 83.5167 271.689 82.95 270.896 82.95C269.989 82.95 268.629 83.6867 266.816 85.16C265.116 86.52 263.416 88.05 261.716 89.75C260.129 91.45 258.996 92.6967 258.316 93.49C254.689 97.57 251.403 102.103 248.456 107.09C245.623 112.077 243.866 116.327 243.186 119.84C243.073 120.407 242.846 121.427 242.506 122.9C242.279 124.373 241.769 125.053 240.976 124.94C239.843 124.713 239.049 124.033 238.596 122.9C238.256 121.653 238.029 120.52 237.916 119.5C237.916 118.933 237.859 118.367 237.746 117.8C237.746 117.12 237.746 116.44 237.746 115.76C237.746 110.207 238.369 103.917 239.616 96.89C240.863 89.8633 242.449 82.6667 244.376 75.3C246.416 67.9333 248.569 61.0767 250.836 54.73C253.103 48.3833 255.256 43.1133 257.296 38.92C258.316 36.88 259.449 34.9533 260.696 33.14C261.943 31.2133 263.189 30.25 264.436 30.25C265.229 30.25 265.909 30.6467 266.476 31.44C267.156 32.2333 267.496 32.9133 267.496 33.48C267.496 33.9333 266.703 35.7467 265.116 38.92C263.643 41.98 261.716 46.06 259.336 51.16C256.956 56.1467 254.519 61.87 252.026 68.33C249.646 74.79 247.493 81.7033 245.566 89.07C243.639 96.4367 242.336 103.917 241.656 111.51C241.656 111.623 241.599 112.19 241.486 113.21C241.373 114.23 241.259 115.25 241.146 116.27C241.146 117.29 241.146 117.8 241.146 117.8V117.63H241.316C241.543 116.27 241.939 114.967 242.506 113.72C243.186 112.473 243.866 111.283 244.546 110.15C247.946 103.35 252.309 96.8333 257.636 90.6C260.243 87.6533 262.963 85.1033 265.796 82.95C268.629 80.6833 271.576 79.55 274.636 79.55C275.883 79.55 276.959 79.89 277.866 80.57C278.773 81.25 279.226 82.5533 279.226 84.48C279.226 86.9733 278.376 89.92 276.676 93.32C275.089 96.6067 273.106 100.063 270.726 103.69C268.459 107.203 266.363 110.547 264.436 113.72C261.829 118.14 259.449 122.843 257.296 127.83C255.256 132.703 254.236 137.803 254.236 143.13C254.236 144.717 254.349 146.417 254.576 148.23C254.916 150.043 255.426 151.573 256.106 152.82C256.899 154.18 257.976 154.86 259.336 154.86C260.243 154.86 261.093 154.577 261.886 154.01C262.793 153.557 263.529 153.103 264.096 152.65C265.116 151.63 265.796 151.12 266.136 151.12C266.476 151.12 266.646 151.29 266.646 151.63C266.646 152.31 266.363 152.933 265.796 153.5C265.229 154.18 264.663 154.69 264.096 155.03C263.303 155.71 262.226 156.333 260.866 156.9C259.619 157.467 258.373 157.75 257.126 157.75ZM280.99 126.64C279.177 126.64 277.647 125.677 276.4 123.75C275.493 122.163 275.04 120.293 275.04 118.14C275.04 115.08 275.72 111.623 277.08 107.77C278.44 103.917 280.253 100.177 282.52 96.55C284.9 92.9233 287.507 89.8633 290.34 87.37C293.287 84.7633 296.29 83.2333 299.35 82.78C300.483 82.6667 301.843 82.95 303.43 83.63C305.017 84.31 306.32 85.16 307.34 86.18C307.567 85.0467 307.737 83.97 307.85 82.95C307.963 81.8167 308.02 80.74 308.02 79.72C308.02 76.5467 307.51 73.7133 306.49 71.22C305.47 68.7267 303.657 67.0833 301.05 66.29C300.03 65.95 298.897 65.78 297.65 65.78C296.97 65.78 296.233 65.8933 295.44 66.12C294.647 66.2333 293.797 66.5733 292.89 67.14C291.983 67.5933 291.077 68.33 290.17 69.35C289.263 70.2567 288.64 71.1067 288.3 71.9C288.073 72.3533 287.507 73.3733 286.6 74.96C285.693 76.4333 284.957 77.1133 284.39 77C283.937 76.8867 283.71 76.49 283.71 75.81C283.71 75.47 283.823 74.96 284.05 74.28C284.73 72.1267 286.033 70.3133 287.96 68.84C289.887 67.2533 291.983 66.0067 294.25 65.1C296.517 64.08 298.387 63.5133 299.86 63.4C300.2 63.4 300.54 63.4 300.88 63.4C301.22 63.2867 301.503 63.23 301.73 63.23C303.543 63.23 305.187 63.5133 306.66 64.08C308.247 64.5333 309.493 65.1567 310.4 65.95C311.873 67.0833 313.063 68.5567 313.97 70.37C314.877 72.07 315.33 74.2233 315.33 76.83C315.33 77.6233 315.273 78.4733 315.16 79.38C315.047 80.2867 314.877 81.1933 314.65 82.1C314.31 83.9133 313.857 86.2367 313.29 89.07C312.837 91.79 312.327 94.6233 311.76 97.57C311.307 100.517 310.91 103.237 310.57 105.73C310.343 108.11 310.23 109.81 310.23 110.83C310.23 111.963 310.57 113.267 311.25 114.74C312.043 116.1 313.063 116.78 314.31 116.78C314.99 116.78 315.727 116.44 316.52 115.76C317.427 115.08 318.333 113.947 319.24 112.36C319.807 111.453 320.317 111 320.77 111C321.337 111 321.62 111.34 321.62 112.02C321.62 112.927 321.167 114.003 320.26 115.25C318.107 118.31 315.387 119.84 312.1 119.84C309.38 119.84 307.453 118.707 306.32 116.44C304.393 112.7 303.43 109.357 303.43 106.41C303.43 103.35 303.373 101.253 303.26 100.12C302.693 101.48 301.617 103.633 300.03 106.58C298.443 109.413 296.573 112.417 294.42 115.59C292.267 118.65 290 121.257 287.62 123.41C285.24 125.563 283.03 126.64 280.99 126.64ZM283.71 121.54C284.843 121.54 286.147 120.973 287.62 119.84C289.207 118.707 290.85 116.95 292.55 114.57C294.817 111.283 296.913 107.6 298.84 103.52C300.767 99.44 302.523 95.4733 304.11 91.62C302.75 88.3333 301.05 86.69 299.01 86.69C297.197 86.69 295.27 87.6533 293.23 89.58C291.19 91.5067 289.263 93.7167 287.45 96.21C285.183 99.61 283.37 103.01 282.01 106.41C280.763 109.81 280.14 112.7 280.14 115.08C280.14 119.387 281.33 121.54 283.71 121.54ZM321.458 194.81C317.038 194.81 313.468 193.62 310.748 191.24C308.028 188.973 306.668 185.913 306.668 182.06C306.668 178.66 307.631 175.26 309.558 171.86C311.371 168.573 313.638 165.4 316.358 162.34C319.191 159.393 322.024 156.787 324.858 154.52C329.844 150.553 335.738 146.813 342.538 143.3C349.451 139.787 357.214 137.123 365.828 135.31C365.941 134.063 365.998 132.76 365.998 131.4C365.998 130.153 365.998 128.907 365.998 127.66C365.998 118.48 365.374 110.15 364.128 102.67C362.881 95.0767 361.464 88.56 359.878 83.12C355.344 94.34 351.321 103.69 347.808 111.17C344.294 118.537 342.368 124.713 342.028 129.7C341.914 130.493 341.404 131.343 340.498 132.25C339.704 133.27 338.798 133.78 337.778 133.78C337.098 133.78 336.418 133.383 335.738 132.59C335.171 131.91 334.774 130.663 334.548 128.85C334.548 128.397 334.491 127.773 334.378 126.98C334.378 126.187 334.378 124.77 334.378 122.73C334.378 120.69 334.378 117.63 334.378 113.55C334.378 109.923 334.264 106.24 334.038 102.5C333.924 98.6467 333.528 95.0767 332.848 91.79C332.168 88.5033 331.148 85.84 329.788 83.8C328.541 81.76 326.784 80.74 324.518 80.74C322.704 80.74 321.004 81.42 319.418 82.78C317.944 84.14 316.698 85.5 315.678 86.86C314.658 88.1067 313.864 88.73 313.298 88.73C312.844 88.73 312.618 88.56 312.618 88.22C312.618 87.9933 312.788 87.6533 313.128 87.2C313.354 86.6333 313.581 86.18 313.808 85.84C314.828 84.3667 316.131 82.8933 317.718 81.42C319.418 79.9467 321.174 78.7 322.988 77.68C324.914 76.5467 326.614 75.98 328.088 75.98C331.148 75.98 333.528 77.5667 335.228 80.74C336.928 83.8 338.118 87.71 338.798 92.47C339.591 97.23 339.988 102.103 339.988 107.09C339.988 109.243 339.874 111.85 339.648 114.91C339.421 117.97 339.138 120.577 338.798 122.73C341.064 118.537 343.954 112.7 347.468 105.22C350.981 97.74 354.834 89.2967 359.028 79.89L357.498 75.47V74.96C357.498 73.8267 357.838 72.9767 358.518 72.41C359.311 71.8433 360.104 71.56 360.898 71.56C361.578 71.56 362.258 71.73 362.938 72.07C363.618 72.41 364.071 72.92 364.298 73.6C365.658 76.66 366.791 80.8533 367.698 86.18C368.718 91.5067 369.454 97.2867 369.908 103.52C370.474 109.64 370.758 115.703 370.758 121.71C370.758 126.243 370.588 130.493 370.248 134.46C373.081 133.893 376.084 133.44 379.258 133.1C382.544 132.76 385.378 132.59 387.758 132.59C389.231 132.59 389.968 132.817 389.968 133.27C389.968 134.177 388.778 134.743 386.398 134.97C383.678 135.197 380.901 135.48 378.068 135.82C375.348 136.273 372.571 136.84 369.738 137.52C367.358 150.553 363.618 160.98 358.518 168.8C353.531 176.733 348.374 182.683 343.048 186.65C339.194 189.483 335.398 191.523 331.658 192.77C328.031 194.13 324.631 194.81 321.458 194.81ZM320.098 191.24C322.024 191.24 324.234 190.843 326.728 190.05C329.334 189.257 332.054 188.01 334.888 186.31C343.954 180.983 350.981 174.24 355.968 166.08C360.954 158.033 364.128 148.853 365.488 138.54C358.801 140.353 352.058 142.96 345.258 146.36C338.571 149.873 332.451 153.953 326.898 158.6C324.404 160.753 321.911 163.19 319.418 165.91C317.038 168.63 315.054 171.407 313.468 174.24C311.881 177.187 311.088 180.02 311.088 182.74C311.088 185.347 311.881 187.387 313.468 188.86C315.054 190.447 317.264 191.24 320.098 191.24Z" fill="white"/>
</svg>
